<svg width="209" height="53" viewBox="0 0 209 53" fill="none" xmlns="http://www.w3.org/2000/svg">
<path d="M86.1803 3.33333L28.1803 2.33333C24.1803 2.66667 15.4804 3.53334 12.6804 4.33334C9.18036 5.33335 7.68036 8.33334 5.18036 11.3333C2.68036 14.3333 1.68034 18.3333 1.18034 22.3333C0.68034 26.3333 1.18034 33.8333 3.18034 39.8333C5.18034 45.8333 13.1803 50.8333 19.1803 51.8333C25.1803 52.8333 36.6803 51.8333 41.1803 51.8333C45.6803 51.8333 73.6803 51.3333 79.6803 50.8333C85.6803 50.3333 141.68 49.8333 146.18 49.8333C150.68 49.8333 186.18 50.8333 192.68 48.8333C199.18 46.8333 203.68 40.8333 205.68 37.3333C207.68 33.8333 208.18 25.8333 207.68 18.3333C207.18 10.8333 199.18 5.33333 192.68 2.33333C186.18 -0.666667 165.68 2.33333 158.68 2.33333C153.08 2.33333 108.014 3 86.1803 3.33333Z" stroke="black" stroke-opacity="0.15"/>
</svg>
