<svg width="264" height="141" viewBox="0 0 264 141" fill="none" xmlns="http://www.w3.org/2000/svg">
<path d="M2.29289 23.0284C2.00922 36.3501 4.42701 49.6313 3.20166 62.9607C2.98659 71.6341 2.77739 80.3173 3.3221 88.9913C3.38444 102.528 2.61043 110.014 3.44426 123.539C4.5 135 14.2023 136.611 20.5498 137.306C25.3845 137.225 30.2306 136.53 35.0789 137.261C42.3331 138.074 49.9474 138.796 57.2474 138.016C66.1335 137.53 71.9305 137.905 80.8048 138.006C82.0375 137.872 86.7487 137.572 88.4662 137.53" stroke="white" stroke-opacity="0.15" stroke-miterlimit="10" stroke-linecap="round" stroke-linejoin="round"/>
<path d="M87.6245 137.546C102.865 136.878 118.118 137.312 133.36 137.12C148.366 136.294 163.476 138.163 178.429 136.572C192.652 135.448 206.979 136.752 221.239 136.005C228.904 135.25 236.612 136.165 244.294 135.522C251.564 135.074 257.901 130.368 259.303 124.083C259.65 118.96 258.887 118.827 259.603 113.736" stroke="white" stroke-opacity="0.15" stroke-miterlimit="10" stroke-linecap="round" stroke-linejoin="round"/>
<path d="M259.603 113.495C260.097 106.014 260.326 98.5355 261.135 91.074C261.893 79.7549 260.691 68.4441 260.384 57.1273C259.653 42.7088 259.17 30.2811 259.397 15.8437C258.5 8 252 3 242.5 3.5C233.795 4.07717 229.59 3.24783 220.896 3.70051C214.558 4.67257 208.115 3.58971 201.735 4.08066C194.748 3.60399 187.712 2.32601 180.775 3.98626C169.403 4.6147 158.029 2.89843 146.638 3.55214C137.51 3.62958 128.396 4.51789 119.289 3.52467C117.507 3.48317 115.724 3.49789 113.943 3.56243" stroke="white" stroke-opacity="0.15" stroke-miterlimit="10" stroke-linecap="round" stroke-linejoin="round"/>
<path d="M113.74 3.56245C104.876 3.50154 95.9835 3.52073 87.1941 2.26219C74.8483 1.35213 62.5802 3.70745 50.2374 3.67378C41.575 3.88265 32.9059 3.66004 24.2544 3.23126C17.8395 2.89538 23.4379 2.91209 17.0133 3.01466C5.49995 3.67378 2.22203 15.4309 2.22203 19C2.63321 22.4309 2.04967 19.3662 2.22198 22.5123" stroke="white" stroke-opacity="0.15" stroke-miterlimit="10" stroke-linecap="round" stroke-linejoin="round"/>
</svg>
