<svg width="263" height="141" viewBox="0 0 263 141" fill="none" xmlns="http://www.w3.org/2000/svg">
<path d="M85.1803 3.33333L28.1803 4.33333C24.1803 4.66667 15.4804 5.53334 12.6804 6.33334C9.18036 7.33335 7.68036 10.3333 5.18036 13.3333C2.68036 16.3333 1.68034 20.3333 1.18034 24.3333C0.68034 28.3333 1.18034 121.833 3.18034 127.833C5.18034 133.833 13.1803 138.833 19.1803 139.833C25.1803 140.833 36.6803 139.833 41.1803 139.833C45.6803 139.833 72.6803 139.333 78.6803 138.833C84.6803 138.333 195.68 137.833 200.18 137.833C204.68 137.833 240.18 138.833 246.68 136.833C253.18 134.833 257.68 128.833 259.68 125.333C261.68 121.833 262.18 25.8333 261.68 18.3333C261.18 10.8333 253.18 6.33333 246.68 3.33333C240.18 0.333334 219.68 1.33333 212.68 1.33333C207.08 1.33333 107.014 3 85.1803 3.33333Z" stroke="black" stroke-opacity="0.15"/>
<path d="M33.8113 6.32995C35.6703 6.32995 37.5002 5.92311 39.3602 5.90311C43.4997 5.8586 47.626 6.11653 51.7623 6.11653C57.0059 6.11653 62.2987 5.75623 67.5317 6.02168C70.6822 6.18148 73.7986 6.65821 76.9459 6.83979C80.8386 7.06437 84.7625 6.99909 88.6604 6.97021C96.107 6.91505 103.483 5.95904 110.951 6.16396C119.214 6.3907 125.245 5.63884 133.5 6C141.435 6.34714 154.58 5.51539 162.5 5.90311C168.289 6.18649 214.839 2.86775 220.5 4" stroke="black" stroke-opacity="0.1" stroke-width="0.5" stroke-linecap="round"/>
</svg>
