<svg width="263" height="141" viewBox="0 0 263 141" fill="none" xmlns="http://www.w3.org/2000/svg">
<path d="M85.1803 3.33333L28.1803 2.33333C24.1803 2.66667 15.4804 3.53334 12.6804 4.33334C9.18036 5.33335 7.68036 8.33334 5.18036 11.3333C2.68036 14.3333 1.68034 18.3333 1.18034 22.3333C0.68034 26.3333 1.18034 121.833 3.18034 127.833C5.18034 133.833 13.1803 138.833 19.1803 139.833C25.1803 140.833 36.6803 139.833 41.1803 139.833C45.6803 139.833 72.6803 139.333 78.6803 138.833C84.6803 138.333 195.68 137.833 200.18 137.833C204.68 137.833 240.18 138.833 246.68 136.833C253.18 134.833 257.68 128.833 259.68 125.333C261.68 121.833 262.18 25.8333 261.68 18.3333C261.18 10.8333 253.18 5.33333 246.68 2.33333C240.18 -0.666667 219.68 2.33333 212.68 2.33333C207.08 2.33333 107.014 3 85.1803 3.33333Z" stroke="black" stroke-opacity="0.15"/>
</svg>
